<svg width="36" height="36" viewBox="0 0 36 36" fill="none" xmlns="http://www.w3.org/2000/svg">
<path fill-rule="evenodd" clip-rule="evenodd" d="M6.54545 0C4.80949 0 3.14463 0.689609 1.91712 1.91712C0.689609 3.14463 0 4.80949 0 6.54545V29.4545C0 31.1905 0.689609 32.8554 1.91712 34.0829C3.14463 35.3104 4.80949 36 6.54545 36H29.4545C31.1905 36 32.8554 35.3104 34.0829 34.0829C35.3104 32.8554 36 31.1905 36 29.4545V6.54545C36 4.80949 35.3104 3.14463 34.0829 1.91712C32.8554 0.689609 31.1905 0 29.4545 0H6.54545ZM5.99891 5.72727C5.81978 5.79384 5.65867 5.90133 5.52841 6.04116C5.39816 6.18099 5.30236 6.34931 5.24864 6.5327C5.19493 6.7161 5.18478 6.90951 5.21901 7.09752C5.25324 7.28553 5.33091 7.46294 5.44582 7.61564L14.6324 19.8065L4.95327 30.1893L4.88127 30.2727H8.23091L16.1345 21.798L22.2087 29.862C22.3497 30.0487 22.541 30.1912 22.7602 30.2727H29.9962C30.175 30.2058 30.3358 30.0981 30.4657 29.9581C30.5956 29.8181 30.6911 29.6497 30.7444 29.4664C30.7978 29.283 30.8077 29.0897 30.7732 28.9019C30.7388 28.714 30.661 28.5368 30.546 28.3844L21.3595 16.1935L31.1187 5.72727H27.7642L19.8605 14.2036L13.7831 6.13964C13.6424 5.95237 13.451 5.80929 13.2316 5.72727H5.99891ZM23.8025 27.8967L8.88709 8.10327H12.1909L27.1047 27.8951L23.8025 27.8967Z" fill="#2A2A2A"/>
</svg>
