<svg width="37" height="37" viewBox="0 0 37 37" fill="none" xmlns="http://www.w3.org/2000/svg">
<path fill-rule="evenodd" clip-rule="evenodd" d="M6.89431 0.000374699C5.15847 -0.0201857 3.48556 0.649656 2.2436 1.86254C1.00164 3.07543 0.292357 4.73201 0.271796 6.46785L0.000465342 29.3753C-0.0200951 31.1112 0.649747 32.7841 1.86263 34.026C3.07552 35.268 4.7321 35.9773 6.46794 35.9978L29.3754 36.2692C31.1113 36.2897 32.7842 35.6199 34.0261 34.407C35.2681 33.1941 35.9774 31.5375 35.9979 29.8017L36.2693 6.89422C36.2898 5.15838 35.62 3.48547 34.4071 2.24351C33.1942 1.00154 31.5376 0.292266 29.8018 0.271706L6.89431 0.000374699ZM17.9798 31.2248C21.4515 31.2659 24.7973 29.9262 27.2813 27.5004C29.7652 25.0747 31.1837 21.7615 31.2249 18.2898C31.266 14.8181 29.9263 11.4723 27.5005 8.98839C25.0748 6.50446 21.7616 5.08591 18.2899 5.04479C14.8182 5.00367 11.4724 6.34335 8.98848 8.76912C6.50456 11.1949 5.086 14.508 5.04488 17.9797C5.00376 21.4514 6.34344 24.7972 8.76921 27.2812C11.195 29.7651 14.5081 31.1836 17.9798 31.2248ZM11.9989 18.0621C12.0182 16.4347 12.6832 14.8817 13.8475 13.7446C15.0118 12.6075 16.5802 11.9796 18.2075 11.9988C19.8349 12.0181 21.3879 12.6831 22.525 13.8474C23.6621 15.0117 24.2901 16.5801 24.2708 18.2075C24.2515 19.8348 23.5866 21.3878 22.4222 22.5249C21.2579 23.662 19.6895 24.29 18.0622 24.2707C16.4348 24.2514 14.8818 23.5865 13.7447 22.4221C12.6076 21.2578 11.9797 19.6895 11.9989 18.0621ZM18.2269 10.3626C16.1656 10.3382 14.179 11.1336 12.7042 12.5739C11.2294 14.0142 10.3871 15.9814 10.3627 18.0427C10.3383 20.104 11.1337 22.0906 12.574 23.5654C14.0143 25.0403 15.9815 25.8825 18.0428 25.907C20.1041 25.9314 22.0907 25.1359 23.5655 23.6956C25.0404 22.2553 25.8826 20.2881 25.907 18.2268C25.9315 16.1655 25.136 14.1789 23.6957 12.7041C22.2554 11.2293 20.2882 10.387 18.2269 10.3626ZM15.7981 14.5363L21.7035 18.177L15.7118 21.6769L15.7981 14.5363Z" fill="#2A2A2A"/>
</svg>
