<svg width="64" height="64" viewBox="0 0 64 64" fill="none" xmlns="http://www.w3.org/2000/svg">
<path d="M32 24C29.8782 24 27.8434 24.8429 26.3431 26.3431C24.8428 27.8434 24 29.8783 24 32C24 34.1217 24.8428 36.1566 26.3431 37.6569C27.8434 39.1571 29.8782 40 32 40C34.1217 40 36.1565 39.1571 37.6568 37.6569C39.1571 36.1566 40 34.1217 40 32C40 29.8783 39.1571 27.8434 37.6568 26.3431C36.1565 24.8429 34.1217 24 32 24ZM32 45.3333C28.4637 45.3333 25.0724 43.9286 22.5719 41.4281C20.0714 38.9276 18.6666 35.5362 18.6666 32C18.6666 28.4638 20.0714 25.0724 22.5719 22.5719C25.0724 20.0714 28.4637 18.6667 32 18.6667C35.5362 18.6667 38.9276 20.0714 41.4281 22.5719C43.9285 25.0724 45.3333 28.4638 45.3333 32C45.3333 35.5362 43.9285 38.9276 41.4281 41.4281C38.9276 43.9286 35.5362 45.3333 32 45.3333ZM32 12C18.6666 12 7.27996 20.2933 2.66663 32C7.27996 43.7067 18.6666 52 32 52C45.3333 52 56.72 43.7067 61.3333 32C56.72 20.2933 45.3333 12 32 12Z" fill="black"/>
</svg>
